<svg id="svg" version="1.1" xmlns="http://www.w3.org/2000/svg" xmlns:xlink="http://www.w3.org/1999/xlink" width="400" height="400" viewBox="0, 0, 400,400"><g id="svgg"><path id="path0" d="M26.969 77.271 L -0.068 107.668 11.523 110.920 L 23.113 114.172 22.440 173.492 C 21.758 233.564,24.289 248.421,34.167 242.316 C 36.451 240.905,37.500 251.134,37.500 274.816 L 37.500 309.375 45.313 309.375 L 53.125 309.375 53.125 275.000 C 53.125 246.528,53.930 240.625,57.813 240.625 C 60.391 240.625,62.500 242.126,62.500 243.961 C 62.500 245.874,65.165 246.450,68.750 245.313 C 74.764 243.404,75.000 244.751,75.000 280.980 C 75.000 318.535,74.980 318.636,67.188 320.592 C 62.719 321.713,59.375 324.808,59.375 327.821 C 59.375 333.245,110.458 348.296,119.428 345.515 C 121.633 344.831,127.305 343.425,132.031 342.389 C 137.880 341.107,140.625 338.529,140.625 334.315 C 140.625 330.911,141.896 328.125,143.449 328.125 C 145.003 328.125,147.293 313.008,148.539 294.531 C 151.303 253.545,153.465 246.875,163.985 246.875 C 168.325 246.875,171.875 248.281,171.875 250.000 C 171.875 251.719,170.469 253.125,168.750 253.125 C 167.031 253.125,165.625 257.261,165.625 262.316 C 165.625 267.370,167.031 272.375,168.750 273.438 C 174.028 276.700,172.219 283.556,165.625 285.280 C 161.331 286.403,159.375 289.543,159.375 295.313 C 159.375 301.082,161.331 304.222,165.625 305.345 C 169.084 306.249,171.875 309.607,171.875 312.864 C 171.875 316.102,173.984 318.750,176.563 318.750 C 179.852 318.750,181.250 322.071,181.250 329.885 C 181.250 340.566,181.665 340.981,191.406 340.042 L 201.563 339.063 202.435 297.528 C 202.978 271.687,204.454 256.703,206.342 257.869 C 208.010 258.900,209.375 256.848,209.375 253.309 C 209.375 249.094,211.402 246.875,215.252 246.875 C 220.497 246.875,221.268 250.034,222.414 276.239 C 223.120 292.390,225.263 307.507,227.175 309.833 C 229.087 312.159,231.137 317.578,231.732 321.875 C 232.540 327.717,234.958 329.935,241.317 330.668 L 249.821 331.648 250.692 288.519 C 251.473 249.832,252.143 245.279,257.199 244.309 C 261.827 243.421,262.705 245.091,262.106 253.645 C 260.491 276.719,262.402 290.625,267.188 290.625 C 269.792 290.625,271.875 293.403,271.875 296.875 C 271.875 300.347,273.958 303.125,276.563 303.125 C 279.423 303.125,281.250 306.039,281.250 310.603 C 281.250 317.836,286.380 321.875,295.568 321.875 C 299.147 321.875,300.000 314.677,300.000 284.473 C 300.000 252.989,300.721 247.348,304.556 248.820 C 307.832 250.077,309.369 256.855,310.025 272.940 C 310.915 294.765,311.148 295.337,319.531 296.301 C 326.281 297.078,328.125 298.922,328.125 304.895 C 328.125 311.262,329.652 312.500,337.500 312.500 L 346.875 312.500 346.875 275.000 L 346.875 237.500 357.813 237.500 L 368.750 237.500 368.750 270.313 L 368.750 303.125 376.563 303.125 L 384.375 303.125 384.375 268.750 L 384.375 234.375 392.188 234.375 C 397.049 234.375,400.000 232.604,400.000 229.688 C 400.000 226.414,396.701 225.000,389.063 225.000 C 381.797 225.000,378.125 223.539,378.125 220.647 C 378.125 214.525,371.071 212.500,349.744 212.500 C 335.388 212.500,331.250 213.549,331.250 217.188 C 331.250 219.766,329.844 221.875,328.125 221.875 C 326.163 221.875,325.000 201.967,325.000 168.402 L 325.000 114.929 336.245 117.039 C 354.196 120.407,346.555 113.964,312.074 96.661 C 281.854 81.496,278.962 80.718,219.347 71.693 C 145.825 60.564,54.823 46.876,54.347 46.876 C 54.160 46.875,41.840 60.553,26.969 77.271 M109.137 247.656 C 109.006 249.805,107.004 256.484,104.688 262.500 L 100.475 273.438 100.238 260.677 C 100.107 253.659,100.937 246.979,102.083 245.833 C 105.476 242.441,109.393 243.453,109.137 247.656 M121.875 269.879 C 121.875 279.298,121.096 280.234,114.334 278.942 C 107.487 277.633,107.084 276.665,109.952 268.438 C 114.384 255.724,121.875 256.630,121.875 269.879 M121.875 295.313 C 121.875 306.593,117.236 309.070,104.943 304.353 C 98.672 301.947,98.499 296.875,104.688 296.875 C 107.292 296.875,109.375 294.097,109.375 290.625 C 109.375 286.458,111.458 284.375,115.625 284.375 C 120.685 284.375,121.875 286.458,121.875 295.313 M120.703 312.500 C 123.066 312.500,125.000 315.436,125.000 319.025 C 125.000 325.731,102.971 325.487,95.741 318.701 C 90.462 313.745,97.484 308.716,107.020 310.623 C 112.182 311.655,118.340 312.500,120.703 312.500 " stroke="none" fill="#000000" fill-rule="evenodd"></path></g></svg>