<?xml version="1.0" standalone="no"?>
<!DOCTYPE svg PUBLIC "-//W3C//DTD SVG 20010904//EN"
 "http://www.w3.org/TR/2001/REC-SVG-20010904/DTD/svg10.dtd">
<svg version="1.0" xmlns="http://www.w3.org/2000/svg"
 width="200.000000pt" height="200.000000pt" viewBox="0 0 200.000000 200.000000"
 preserveAspectRatio="xMidYMid meet">
<metadata>
Created by potrace 1.16, written by Peter Selinger 2001-2019
</metadata>
<g transform="translate(0.000000,200.000000) scale(0.100000,-0.100000)"
fill="#000000" stroke="none">
<path d="M174 1981 c-17 -10 -42 -36 -55 -57 l-24 -39 0 -885 0 -885 24 -39
c13 -21 38 -47 55 -57 30 -18 64 -19 827 -19 l796 0 33 23 c18 12 43 40 54 62
21 40 21 47 21 920 l0 880 -24 39 c-13 21 -38 47 -55 57 -30 18 -64 19 -826
19 -762 0 -796 -1 -826 -19z m550 -297 c13 -13 16 -44 16 -180 0 -95 -4 -174
-10 -185 -10 -18 -23 -19 -210 -19 -191 0 -200 1 -210 21 -7 13 -10 80 -8 190
2 138 6 172 18 179 8 5 99 10 202 10 156 0 189 -3 202 -16z m897 -4 c21 -12
25 -50 7 -68 -9 -9 -101 -12 -354 -12 -188 0 -349 3 -358 6 -19 7 -21 55 -4
72 16 16 680 17 709 2z m9 -155 c7 -8 10 -25 6 -40 l-6 -25 -363 2 -362 3 -3
23 c-8 54 -20 52 361 52 302 0 356 -2 367 -15z m6 -180 c14 -55 13 -55 -375
-53 l-356 3 -3 23 c-8 54 -21 52 367 52 l361 0 6 -25z m-12 -191 c14 -13 16
-66 16 -429 0 -363 -2 -416 -16 -429 -14 -14 -87 -16 -654 -16 l-639 0 -15 22
c-14 19 -16 77 -16 423 0 346 2 404 16 423 l15 22 639 0 c567 0 640 -2 654
-16z"/>
</g>
</svg>
