<?xml version="1.0" standalone="no"?>
<!DOCTYPE svg PUBLIC "-//W3C//DTD SVG 20010904//EN"
 "http://www.w3.org/TR/2001/REC-SVG-20010904/DTD/svg10.dtd">
<svg version="1.0" xmlns="http://www.w3.org/2000/svg"
 width="512.000000pt" height="512.000000pt" viewBox="0 0 512.000000 512.000000"
 preserveAspectRatio="xMidYMid meet">
<metadata>
Created by potrace 1.15, written by Peter Selinger 2001-2017
</metadata>
<g transform="translate(0.000000,512.000000) scale(0.100000,-0.100000)"
fill="#000000" stroke="none">
<path d="M1152 4710 c-293 -53 -529 -271 -603 -559 -40 -154 -21 -361 46 -509
172 -376 645 -542 1014 -355 l74 38 22 86 c42 166 128 315 254 438 l76 75 -3
78 c-8 207 -109 411 -270 543 -74 62 -198 126 -287 150 -74 19 -251 27 -323
15z"/>
<path d="M3712 4710 c-175 -32 -353 -136 -457 -268 -94 -119 -160 -284 -166
-416 l-3 -56 60 -43 c167 -122 304 -330 349 -528 29 -131 21 -121 115 -153
160 -54 365 -46 523 21 198 84 359 258 422 456 97 304 5 626 -233 822 -74 62
-198 126 -287 150 -74 19 -251 27 -323 15z"/>
<path d="M2410 3919 c-378 -97 -623 -473 -556 -855 59 -339 316 -583 658 -625
354 -43 693 175 804 516 32 98 43 265 25 371 -51 292 -289 538 -580 600 -96
20 -260 17 -351 -7z"/>
<path d="M857 3159 c-348 -37 -657 -268 -788 -590 -64 -157 -62 -140 -66 -676
-2 -271 -2 -493 1 -493 2 0 76 -20 163 -45 282 -80 625 -145 843 -160 52 -4
103 -9 113 -12 15 -4 17 6 17 119 1 169 15 304 45 416 93 348 358 639 700 767
39 15 72 28 74 30 2 2 -24 34 -57 71 -113 126 -203 325 -219 489 -7 73 -10 80
-33 86 -35 10 -698 8 -793 -2z"/>
<path d="M3520 3133 c0 -64 -36 -214 -70 -295 -38 -92 -94 -181 -162 -261 -28
-32 -49 -60 -47 -61 2 -2 41 -18 86 -36 298 -117 537 -361 650 -661 55 -146
64 -205 70 -432 l5 -209 107 7 c321 20 641 90 879 192 l83 36 -4 486 c-4 529
-2 513 -66 670 -109 269 -352 484 -632 561 -115 31 -239 40 -581 40 l-318 0 0
-37z"/>
<path d="M2081 2369 c-289 -61 -537 -252 -666 -514 -92 -188 -105 -285 -105
-822 l0 -402 98 -30 c283 -87 534 -139 852 -178 173 -20 619 -23 775 -4 323
38 584 102 778 190 l68 31 -4 477 c-4 513 -3 504 -60 659 -88 239 -323 469
-566 555 -155 55 -205 59 -660 58 -375 0 -425 -2 -510 -20z"/>
</g>
</svg>
