<?xml version="1.0" standalone="no"?>
<!DOCTYPE svg PUBLIC "-//W3C//DTD SVG 20010904//EN"
 "http://www.w3.org/TR/2001/REC-SVG-20010904/DTD/svg10.dtd">
<svg version="1.0" xmlns="http://www.w3.org/2000/svg"
 width="512.000000pt" height="512.000000pt" viewBox="0 0 512.000000 512.000000"
 preserveAspectRatio="xMidYMid meet">
<metadata>
Created by potrace 1.15, written by Peter Selinger 2001-2017
</metadata>
<g transform="translate(0.000000,512.000000) scale(0.100000,-0.100000)"
fill="#000000" stroke="none">
<path d="M966 4545 c-186 -51 -341 -208 -391 -395 -22 -82 -22 -3097 0 -3179
45 -172 180 -320 350 -383 l60 -23 1095 -3 c766 -2 1111 1 1148 9 192 39 371
216 417 410 11 48 15 128 15 327 l0 262 -225 0 -225 0 0 -235 c0 -191 -3 -242
-15 -265 -33 -63 26 -60 -1096 -60 l-1021 0 -34 34 -34 34 0 1482 0 1482 34
34 34 34 1021 0 c1122 0 1063 3 1096 -60 12 -23 15 -74 15 -265 l0 -235 225 0
225 0 0 263 c0 291 -7 343 -61 449 -37 73 -123 167 -196 214 -28 19 -85 45
-126 59 l-76 25 -1093 -1 c-886 -1 -1102 -3 -1142 -14z"/>
<path d="M3890 3010 l0 -220 -790 0 -790 0 0 -230 0 -230 790 0 790 0 0 -220
c0 -122 4 -220 9 -220 12 0 656 659 656 671 0 13 -644 669 -656 669 -5 0 -9
-93 -9 -220z"/>
</g>
</svg>
