<?xml version="1.0" standalone="no"?>
<!DOCTYPE svg PUBLIC "-//W3C//DTD SVG 20010904//EN"
 "http://www.w3.org/TR/2001/REC-SVG-20010904/DTD/svg10.dtd">
<svg version="1.0" xmlns="http://www.w3.org/2000/svg"
 width="900.000000pt" height="812.000000pt" viewBox="0 0 900.000000 812.000000"
 preserveAspectRatio="xMidYMid meet">
<metadata>
Created by potrace 1.15, written by Peter Selinger 2001-2017
</metadata>
<g transform="translate(0.000000,812.000000) scale(0.100000,-0.100000)"
fill="#000000" stroke="none">
<path d="M793 8107 c-3 -5 -15 -6 -26 -3 -12 3 -26 1 -32 -4 -6 -5 -30 -12
-53 -15 -23 -2 -50 -9 -59 -14 -50 -24 -127 -50 -137 -44 -6 3 -8 3 -4 -2 4
-4 -32 -34 -80 -65 -142 -94 -246 -216 -327 -386 -19 -38 -36 -80 -38 -92 -2
-12 -6 -24 -9 -28 -4 -3 -4 -12 -2 -19 3 -7 1 -16 -4 -19 -6 -3 -8 -15 -5 -26
3 -11 0 -20 -6 -20 -15 0 -16 -5486 0 -5496 6 -3 9 -15 6 -25 -3 -11 -1 -19 5
-19 6 0 8 -6 5 -14 -3 -8 -3 -17 1 -21 4 -4 7 -10 8 -13 0 -4 6 -20 12 -35 7
-16 12 -33 12 -38 0 -5 12 -33 26 -62 74 -147 181 -269 313 -357 41 -28 79
-50 84 -50 4 0 5 -5 1 -12 -4 -6 -3 -8 3 -5 6 4 40 -6 74 -23 35 -16 74 -31
86 -33 12 -2 25 -6 29 -9 3 -4 12 -4 20 -1 8 3 20 0 28 -6 7 -6 16 -8 19 -5 3
4 14 4 23 0 9 -3 912 -6 2005 -6 1405 0 1989 -3 1989 -10 0 -6 5 -8 12 -4 6 4
17 -1 25 -11 7 -11 13 -16 13 -12 0 8 56 -22 185 -98 44 -27 98 -58 120 -70
22 -12 101 -57 175 -100 74 -43 173 -101 220 -128 47 -27 140 -81 207 -121 68
-39 136 -78 152 -87 16 -8 62 -35 102 -59 41 -24 94 -55 119 -68 25 -13 51
-31 58 -40 6 -9 12 -13 12 -9 0 7 109 -50 120 -62 3 -4 21 -14 40 -23 19 -10
55 -30 80 -44 25 -15 65 -38 90 -52 25 -14 62 -36 82 -49 21 -13 63 -37 93
-53 l55 -30 19 30 c10 16 21 28 24 25 4 -3 5 -2 3 1 -6 8 37 86 141 259 7 11
18 31 25 45 7 14 30 54 52 90 21 36 49 83 61 105 33 62 119 209 125 215 3 3
13 21 22 40 10 19 30 55 44 80 15 25 38 65 52 90 14 25 40 69 59 98 l33 53
418 -1 c229 -1 425 2 435 5 10 4 21 5 24 1 3 -3 12 -1 19 5 8 6 20 9 29 6 8
-4 17 -2 20 4 4 5 10 7 15 4 5 -3 11 -1 15 5 3 5 15 10 26 10 11 0 42 11 70
25 27 14 55 23 62 19 7 -4 9 -4 5 1 -4 4 25 28 65 52 129 80 227 185 307 329
27 49 50 95 50 101 0 7 5 24 12 40 6 15 12 31 12 35 1 3 4 9 8 13 4 4 4 13 1
21 -3 8 -1 14 5 14 6 0 8 8 5 19 -3 10 0 22 6 25 15 10 15 5496 0 5496 -5 0
-9 8 -7 18 1 9 0 22 -4 27 -3 6 -9 28 -12 49 -8 51 -61 161 -125 257 -53 80
-163 191 -234 235 -23 15 -45 31 -48 36 -3 5 -9 9 -13 9 -13 -1 -36 11 -32 18
3 4 -3 7 -12 8 -15 1 -109 32 -152 50 -8 3 -18 7 -22 7 -3 1 -9 4 -13 8 -4 4
-13 4 -21 1 -8 -3 -20 0 -28 6 -7 6 -21 9 -29 5 -9 -3 -20 -3 -26 0 -15 10
-7412 12 -7418 3z m7532 -3482 l0 -2810 -660 -5 c-363 -3 -661 -6 -661 -8 -1
-1 -5 -13 -8 -27 -3 -13 -15 -29 -26 -35 -11 -6 -18 -15 -15 -19 4 -7 -23 -57
-155 -286 -46 -80 -122 -212 -130 -225 -5 -8 -46 -79 -91 -158 l-81 -143 -37
22 c-20 12 -54 32 -76 44 -92 50 -210 120 -213 127 -2 5 -10 8 -18 8 -8 0 -22
8 -32 17 -10 10 -24 19 -30 20 -6 2 -73 39 -148 83 -75 44 -140 80 -144 80 -3
0 -16 9 -28 20 -12 12 -22 18 -22 16 0 -3 -24 9 -52 26 -29 17 -66 38 -83 47
-34 17 -185 106 -200 118 -5 5 -26 16 -45 25 -19 10 -96 53 -170 97 -74 44
-154 90 -177 102 -24 12 -43 25 -43 31 0 5 -4 7 -9 3 -5 -3 -12 -1 -16 5 -4 7
-706 10 -2141 10 l-2134 0 0 2815 0 2815 3823 -2 3822 -3 0 -2810z"/>
<path d="M1853 6307 c-3 -5 -14 -7 -24 -4 -11 3 -19 1 -19 -4 0 -5 -3 -8 -7
-7 -12 3 -74 -31 -107 -59 -25 -21 -88 -98 -92 -113 -1 -3 -5 -20 -9 -37 -4
-18 -10 -33 -14 -33 -5 0 -6 -150 0 -157 1 -2 3 -7 4 -13 1 -5 4 -13 5 -17 1
-5 2 -11 1 -15 0 -5 3 -8 8 -8 5 0 13 -10 17 -22 4 -13 18 -36 31 -53 33 -40
115 -105 125 -99 4 3 8 1 8 -3 0 -5 12 -10 27 -11 15 -1 29 -5 32 -10 7 -9
3514 -10 3521 -1 3 4 16 9 30 10 14 2 31 10 38 17 7 6 20 12 27 12 19 0 125
106 125 125 0 7 6 20 13 27 7 7 14 17 14 21 1 4 4 18 8 30 4 12 6 30 5 40 -1
10 4 25 11 33 9 12 9 20 0 38 -7 12 -12 29 -11 37 1 8 -1 23 -4 34 -4 11 -6
24 -6 29 1 5 -2 12 -7 15 -5 3 -23 31 -42 62 -18 30 -41 59 -51 65 -9 5 -37
20 -61 34 -24 13 -47 23 -51 22 -5 -1 -8 2 -8 7 0 5 -9 7 -20 4 -11 -3 -20 -1
-20 3 0 12 -3490 12 -3497 1z"/>
<path d="M1843 4957 c-3 -5 -11 -6 -19 -3 -8 3 -14 2 -14 -3 0 -5 -11 -12 -24
-15 -55 -14 -198 -150 -179 -170 4 -3 2 -6 -3 -6 -5 0 -11 -12 -12 -27 -1 -16
-6 -29 -10 -30 -10 -4 -6 -143 6 -173 5 -14 8 -28 5 -32 -2 -5 0 -8 6 -8 5 0
13 -10 17 -22 19 -60 128 -156 187 -165 18 -3 34 -8 37 -11 7 -9 5313 -9 5320
-1 3 4 16 9 30 10 14 2 31 10 38 17 7 6 20 12 27 12 19 0 125 106 125 125 0 7
7 20 15 29 9 8 15 17 14 18 -2 2 1 14 5 28 5 14 7 33 6 43 -1 10 4 25 11 33 9
12 9 20 -1 39 -7 13 -10 31 -7 39 3 8 2 18 -4 21 -5 4 -7 10 -4 15 3 5 1 11
-5 15 -6 4 -8 11 -5 16 4 5 2 9 -3 9 -6 0 -14 12 -20 28 -14 40 -80 103 -137
132 -28 14 -52 28 -53 33 -2 4 -8 5 -13 1 -5 -3 -13 -3 -18 0 -15 10 -5312 12
-5318 3z"/>
<path d="M1850 3606 c0 -4 -9 -6 -20 -3 -11 3 -20 1 -20 -5 0 -5 -4 -6 -10 -3
-5 3 -10 2 -10 -3 0 -6 -11 -12 -23 -16 -58 -14 -146 -111 -169 -186 -7 -22
-15 -40 -18 -40 -8 0 -4 -146 4 -159 4 -6 4 -15 1 -21 -3 -5 -1 -10 5 -10 6 0
8 -4 5 -10 -3 -5 -2 -10 3 -10 6 0 15 -14 21 -32 12 -34 104 -128 126 -128 8
0 20 -7 29 -15 8 -9 18 -15 21 -14 3 1 16 -2 28 -6 12 -3 38 -9 57 -12 42 -6
5189 -7 5243 -1 20 3 40 8 43 11 3 3 12 3 20 0 8 -3 14 1 14 8 0 7 3 10 6 6 8
-8 94 46 126 80 29 31 78 118 78 139 0 8 5 14 10 14 6 0 8 11 4 25 -4 15 -1
32 6 40 11 13 11 20 0 40 -7 13 -10 30 -7 38 3 8 0 20 -6 26 -6 6 -7 11 -3 11
5 0 3 7 -4 15 -7 8 -9 15 -4 15 5 0 4 4 -1 8 -6 4 -25 32 -44 63 -18 30 -41
59 -51 65 -9 5 -37 20 -61 34 -24 13 -47 23 -51 22 -5 -1 -8 2 -8 7 0 5 -9 7
-20 4 -11 -3 -20 -1 -20 3 0 5 -1162 9 -2650 9 -1488 0 -2650 -4 -2650 -9z"/>
</g>
</svg>
